<?xml version="1.0" standalone="no"?>
<!DOCTYPE svg PUBLIC "-//W3C//DTD SVG 20010904//EN"
 "http://www.w3.org/TR/2001/REC-SVG-20010904/DTD/svg10.dtd">
<svg version="1.0" xmlns="http://www.w3.org/2000/svg"
 width="1792.000000pt" height="1024.000000pt" viewBox="0 0 1792.000000 1024.000000"
 preserveAspectRatio="xMidYMid meet">
<metadata>
Created by potrace 1.16, written by Peter Selinger 2001-2019
</metadata>
<g transform="translate(0.000000,1024.000000) scale(0.100000,-0.100000)"
fill="#000000" stroke="none">
<path d="M8868 9307 c-310 -288 -523 -549 -746 -912 -132 -217 -412 -738 -412
-769 0 -21 17 -47 139 -211 57 -77 116 -156 130 -175 14 -19 31 -41 38 -48 16
-17 -7 -33 222 163 96 83 249 211 340 287 l164 136 41 -13 c52 -16 305 -119
357 -145 21 -11 39 -24 39 -28 0 -7 -342 -117 -462 -149 -38 -9 -68 -21 -68
-26 0 -12 -106 -275 -186 -461 -35 -82 -64 -156 -64 -165 0 -32 219 -393 297
-489 l20 -24 22 59 c13 32 38 102 58 156 l35 97 -30 73 c-16 39 -41 108 -56
153 l-26 80 30 135 c40 174 36 164 65 177 14 7 97 59 185 117 204 134 205 135
233 106 l22 -22 -60 -57 c-34 -31 -118 -110 -187 -175 l-127 -117 39 -93 c21
-50 54 -131 74 -178 l37 -87 92 -42 c120 -56 386 -170 397 -170 4 0 36 21 71
47 58 42 242 166 279 188 20 12 10 -2 -97 -124 l-83 -95 5 -105 c3 -58 8 -142
10 -186 8 -162 20 -695 19 -865 -1 -152 -4 -184 -23 -239 -22 -64 -75 -156
-114 -198 l-20 -23 40 0 c168 0 590 34 698 56 419 86 728 373 832 772 31 121
42 341 23 459 -55 346 -277 597 -617 699 -81 25 -106 27 -307 32 l-219 4 6
127 6 126 -194 129 -194 129 17 29 c9 15 21 28 27 27 5 0 102 -46 215 -102
l205 -102 23 -80 c13 -44 29 -97 35 -118 l12 -38 118 -4 c106 -3 117 -2 112
13 -2 9 -47 116 -99 237 -77 179 -99 221 -118 227 -13 4 -120 26 -238 48 -118
22 -226 45 -239 51 l-24 10 34 23 c19 12 106 60 194 106 l160 83 85 -53 c140
-87 582 -384 684 -459 94 -69 94 -70 108 -48 18 28 197 411 210 449 9 26 2 39
-84 160 -52 73 -132 189 -178 258 -340 508 -708 909 -1110 1208 -52 39 -96 69
-99 66 -2 -2 43 -52 100 -111 219 -226 434 -509 651 -854 111 -177 308 -561
333 -648 l15 -53 -25 6 c-13 3 -102 43 -197 87 -413 194 -501 231 -522 221
-12 -5 -57 -38 -101 -73 -166 -133 -288 -216 -293 -199 -4 11 88 214 124 271
24 38 128 126 243 206 39 26 71 54 71 60 0 25 -201 410 -269 515 -87 136 -133
198 -242 323 -107 124 -137 150 -78 68 139 -197 275 -499 345 -765 11 -44 12
-62 3 -75 -6 -10 -56 -56 -110 -102 -96 -81 -99 -85 -99 -125 0 -50 -22 -144
-56 -248 -21 -63 -30 -78 -46 -78 -30 0 -73 -29 -92 -61 l-17 -29 -30 35 c-26
29 -38 35 -70 35 -38 0 -39 1 -79 80 -50 99 -100 224 -100 250 0 13 -35 42
-117 97 l-118 78 3 55 c5 98 61 349 113 504 27 83 79 210 114 281 72 143 63
137 -52 -35 -140 -209 -252 -449 -367 -780 -43 -123 -45 -113 37 -156 111 -57
228 -136 268 -181 71 -79 180 -253 159 -253 -10 0 -285 159 -396 229 l-51 32
-146 -84 c-217 -126 -481 -267 -500 -267 -23 0 -22 1 19 137 160 529 478 1123
826 1541 38 45 67 82 64 82 -3 0 -65 -56 -138 -123z m1452 -2754 c148 -40 274
-185 326 -373 34 -124 27 -370 -13 -489 -69 -206 -217 -363 -385 -409 l-38
-10 -1 141 c-1 78 -3 187 -4 242 -2 55 -3 248 -4 428 l-1 328 -79 79 -79 79
52 3 c81 5 167 -2 226 -19z"/>
<path d="M10986 9269 c10 -15 35 -46 55 -70 80 -97 251 -378 296 -487 8 -21
21 -50 28 -67 56 -122 127 -340 169 -515 38 -162 76 -360 76 -401 0 -47 -64
-255 -146 -476 -35 -94 -64 -173 -64 -175 0 -1 58 -2 129 0 l128 3 133 300
c73 165 130 307 127 317 -3 9 -62 154 -131 321 -202 484 -339 734 -535 979
-65 82 -306 328 -265 271z"/>
<path d="M7395 9088 c-231 -278 -426 -647 -603 -1143 -132 -371 -151 -425
-157 -457 -6 -30 0 -47 40 -114 26 -43 58 -97 70 -119 91 -160 168 -291 174
-297 12 -13 291 4 291 17 0 7 -43 100 -96 206 -53 107 -111 229 -130 271 l-33
76 19 143 c39 290 86 518 147 719 67 221 213 554 305 696 58 90 60 94 55 94
-3 0 -39 -42 -82 -92z"/>
<path d="M10848 9010 c155 -238 240 -526 247 -835 l3 -150 37 -13 c21 -7 41
-10 44 -6 3 3 6 65 5 137 0 196 -42 370 -134 562 -50 104 -146 255 -200 315
l-31 35 29 -45z"/>
<path d="M7686 8923 c-56 -87 -126 -227 -175 -350 -89 -224 -135 -415 -181
-750 l-21 -152 44 -108 c25 -59 93 -210 152 -336 l108 -227 98 0 c55 0 99 3
99 6 0 4 -39 86 -86 183 -146 298 -203 434 -214 508 -13 91 -13 364 1 499 23
235 96 510 187 707 22 48 39 87 36 87 -2 0 -24 -30 -48 -67z"/>
<path d="M6179 8174 c-10 -12 -7 -31 14 -97 15 -45 27 -87 27 -94 0 -7 -34 12
-76 42 -74 53 -114 68 -114 43 0 -7 8 -35 19 -63 23 -61 36 -135 24 -135 -5 0
-29 21 -53 46 -60 61 -91 77 -115 60 -16 -11 -12 -18 46 -76 70 -69 156 -140
170 -140 23 0 29 40 14 96 -8 32 -15 69 -15 81 0 21 2 23 23 12 12 -7 40 -27
61 -46 43 -36 54 -39 79 -20 19 13 14 37 -39 214 -25 83 -43 104 -65 77z"/>
<path d="M12439 8093 c-91 -95 -93 -97 -77 -122 17 -28 26 -27 65 11 l32 31
28 -29 c15 -17 45 -43 66 -58 20 -16 37 -33 37 -38 0 -5 -11 -24 -25 -42 -26
-34 -32 -56 -15 -56 6 0 10 -7 10 -15 0 -28 32 -2 101 84 70 87 80 110 56 130
-10 8 -22 3 -48 -19 -19 -16 -38 -29 -44 -29 -5 0 -37 24 -69 53 l-59 53 26
44 c21 35 24 48 15 57 -20 20 -32 14 -99 -55z"/>
<path d="M5793 7898 c-4 -7 -8 -49 -9 -93 -2 -92 -11 -145 -26 -145 -5 0 -37
17 -70 37 -43 27 -64 34 -75 27 -26 -16 -19 -28 43 -74 33 -25 80 -62 104 -82
50 -44 56 -45 70 -18 8 15 7 27 -3 46 -11 22 -11 37 0 97 9 43 12 99 9 137 -3
36 -6 68 -6 73 0 12 -28 8 -37 -5z"/>
<path d="M12850 7723 c-30 -25 -72 -58 -92 -73 l-38 -28 59 -61 c32 -33 70
-65 85 -71 81 -31 194 65 167 141 -17 50 -91 138 -116 138 -5 1 -35 -20 -65
-46z"/>
<path d="M5455 7531 c-6 -10 0 -39 29 -133 l15 -48 -125 7 c-85 4 -124 3 -124
-5 0 -6 24 -15 53 -21 28 -6 96 -25 150 -42 54 -17 101 -28 104 -25 4 4 2 38
-5 77 -21 124 -27 116 86 121 109 5 163 22 102 32 -19 3 -64 8 -100 11 -57 5
-104 14 -162 31 -9 3 -19 0 -23 -5z"/>
<path d="M13135 7466 c-70 -40 -165 -106 -165 -115 0 -4 9 -16 19 -25 18 -17
22 -17 43 -2 38 27 43 20 39 -46 -3 -65 20 -133 43 -125 6 2 15 26 19 54 8 50
9 51 33 38 13 -6 35 -10 49 -7 29 5 65 46 65 72 0 21 -46 106 -80 148 l-25 31
-40 -23z"/>
<path d="M5215 7279 c-7 -11 7 -33 103 -164 32 -44 61 -88 65 -98 10 -25 25
-13 32 27 9 46 -21 102 -98 182 -59 61 -88 76 -102 53z"/>
<path d="M13013 6922 c-112 -1 -203 -5 -203 -8 0 -3 17 -31 39 -62 53 -80 80
-135 91 -190 13 -63 38 -671 46 -1117 8 -399 5 -427 -56 -547 -17 -32 -30 -60
-30 -62 0 -2 37 -6 83 -9 45 -4 193 -17 330 -29 136 -12 250 -19 253 -16 3 4
-2 21 -11 38 -45 86 -65 228 -65 463 l0 147 58 0 c68 0 99 -14 128 -58 31 -46
41 -102 64 -351 11 -119 24 -261 30 -316 5 -55 12 -136 15 -180 3 -44 8 -91
10 -105 2 -14 7 -56 10 -95 3 -38 8 -88 10 -110 2 -22 7 -78 10 -125 3 -47 12
-168 20 -270 8 -102 21 -277 30 -390 8 -113 20 -245 25 -295 5 -49 12 -121 14
-160 3 -38 11 -112 17 -162 l11 -92 117 -93 c64 -51 166 -131 226 -177 61 -47
164 -128 231 -182 131 -105 344 -263 344 -254 0 3 -18 42 -41 86 -94 188 -181
468 -247 795 -62 305 -90 498 -222 1534 -124 982 -121 958 -166 1083 -14 40
-26 77 -27 83 -1 6 26 32 60 57 160 119 254 317 239 507 -13 174 -72 306 -191
426 -115 116 -237 182 -410 220 -83 19 -330 23 -842 16z m606 -373 c176 -28
294 -149 294 -303 0 -198 -145 -325 -370 -326 l-63 0 -1 143 c-4 337 -5 349
-39 417 -25 50 -29 65 -18 71 18 12 120 11 197 -2z"/>
<path d="M11805 6898 c-225 -5 -431 -12 -457 -16 l-47 -7 46 -60 c25 -33 59
-88 75 -123 36 -74 47 -176 47 -439 l1 -163 -47 -1 c-27 -1 -58 0 -70 1 -13 1
-23 -1 -23 -4 0 -3 22 -34 49 -70 93 -122 95 -135 96 -486 0 -343 -4 -369 -75
-480 l-38 -57 397 -6 c396 -7 767 -21 894 -36 37 -4 67 -4 67 -1 0 4 -9 33
-20 65 -29 85 -28 207 6 445 2 19 7 43 10 53 3 9 3 17 -1 17 -3 0 -42 -29 -86
-65 -44 -36 -103 -77 -132 -92 -52 -27 -53 -28 -289 -31 l-238 -4 -1 54 c0 29
-2 109 -2 178 l-2 125 156 -2 c110 -1 184 -8 254 -22 55 -11 100 -19 102 -17
2 1 14 63 28 137 14 73 41 207 60 296 19 89 35 166 35 172 0 7 -30 -11 -66
-39 -123 -95 -121 -94 -360 -98 l-211 -4 -6 69 c-4 37 -7 128 -7 201 l0 132
33 1 c255 7 379 -13 505 -81 31 -16 57 -29 58 -27 2 2 13 65 24 142 19 122 55
285 76 338 7 20 -30 21 -841 5z"/>
<path d="M7795 6814 c-154 -7 -292 -13 -307 -13 -27 -1 -27 -2 36 -80 82 -102
103 -153 87 -218 -19 -72 -189 -455 -209 -467 -22 -13 -234 413 -236 473 0 27
15 71 57 156 l58 118 -109 -7 c-60 -3 -215 -11 -343 -16 -129 -5 -274 -12
-324 -16 l-90 -7 45 -36 c79 -64 162 -145 200 -196 57 -78 482 -783 495 -824
16 -46 26 -503 14 -626 -8 -76 -16 -104 -53 -178 l-43 -87 31 5 c17 3 168 16
335 30 167 13 305 26 308 29 2 2 -12 26 -33 53 -81 105 -91 158 -99 528 l-7
270 200 406 c192 390 308 609 358 676 13 17 24 34 24 37 0 7 -47 6 -395 -10z"/>
<path d="M8152 6565 c-91 -151 -92 -155 -78 -183 22 -43 112 -162 314 -415
100 -126 184 -238 188 -251 3 -12 6 -175 7 -362 l2 -339 -28 -59 c-15 -33 -25
-61 -23 -63 3 -3 67 0 143 6 76 6 209 13 296 17 86 4 157 9 157 12 0 3 -18 33
-39 66 -22 34 -46 85 -55 115 -18 61 -31 225 -42 503 l-6 187 106 205 c59 113
140 267 181 343 41 75 74 137 73 137 -2 1 -16 7 -33 13 -16 6 -101 41 -189 77
-87 36 -161 66 -165 66 -3 0 -23 -46 -44 -103 -111 -295 -184 -467 -198 -467
-22 0 -232 291 -414 573 -27 42 -52 77 -55 77 -3 -1 -47 -70 -98 -155z"/>
<path d="M5355 6660 c-185 -9 -395 -27 -403 -34 -2 -3 20 -38 50 -78 101 -135
114 -177 123 -413 20 -563 23 -1652 5 -1820 -23 -212 -62 -352 -141 -505 -112
-217 -324 -400 -564 -486 -147 -52 -252 -67 -430 -61 -191 7 -311 35 -474 108
-35 16 -70 29 -77 29 -8 0 -14 -21 -18 -63 -3 -34 -10 -118 -16 -187 -16 -177
-40 -400 -46 -425 -5 -19 2 -24 64 -44 197 -62 470 -85 697 -57 372 44 744
196 1000 407 214 176 372 389 476 643 87 211 106 348 115 816 3 195 9 358 13
361 3 4 36 12 73 18 272 46 530 186 687 372 72 86 151 234 183 345 19 66 23
103 23 224 0 172 -14 233 -80 365 -127 252 -358 414 -673 470 -109 19 -364 26
-587 15z m424 -386 c272 -61 415 -290 366 -589 -34 -212 -189 -392 -374 -434
-28 -6 -43 -5 -48 2 -3 5 -10 197 -15 426 -6 295 -12 421 -21 432 -7 9 -42 52
-80 95 -49 56 -64 80 -55 86 17 10 144 0 227 -18z"/>
<path d="M4175 6633 c-16 -2 -73 -10 -125 -19 -352 -60 -631 -259 -778 -557
-75 -151 -87 -209 -87 -412 0 -165 1 -173 32 -258 48 -137 113 -236 233 -358
122 -124 184 -166 510 -349 338 -190 444 -262 575 -394 124 -125 181 -210 226
-338 15 -45 31 -113 35 -150 4 -37 10 -68 13 -68 16 0 76 118 112 219 70 200
95 379 100 713 l2 148 -79 66 c-176 147 -352 260 -736 474 -195 108 -288 176
-334 243 -47 68 -59 119 -45 186 27 136 146 212 332 213 158 1 310 -65 424
-183 37 -38 68 -69 69 -69 2 0 6 89 9 198 11 325 37 459 115 604 20 37 33 70
30 73 -19 19 -510 33 -633 18z"/>
<path d="M9388 6314 c-40 -81 -49 -110 -42 -122 12 -19 245 -202 257 -202 8 0
1 265 -9 348 -4 33 -9 42 -25 42 -10 0 -42 9 -71 20 -29 11 -54 20 -56 20 -2
0 -26 -48 -54 -106z"/>
<path d="M11470 4830 c0 -3 9 -18 21 -35 39 -57 80 -146 93 -203 19 -76 25
-301 32 -1317 l7 -851 -49 -40 c-27 -23 -166 -132 -309 -243 -143 -111 -287
-223 -320 -249 -33 -25 -161 -124 -285 -219 -280 -215 -372 -289 -613 -496
-229 -195 -597 -541 -587 -550 3 -3 32 6 65 20 97 40 317 133 350 148 17 7 95
41 175 75 314 134 704 337 1125 585 83 48 176 103 208 121 31 18 101 60 155
92 162 99 323 188 484 268 84 41 153 78 153 82 -1 4 -4 34 -8 67 -9 73 -24
516 -33 952 l-7 321 49 6 c190 24 299 58 426 133 298 178 466 518 403 815 -24
114 -68 193 -159 284 -91 90 -154 130 -271 170 -140 47 -219 54 -645 60 -217
2 -410 6 -427 7 -18 2 -33 1 -33 -3z m746 -319 c138 -26 242 -97 285 -193 33
-74 33 -216 -1 -303 -39 -101 -112 -190 -190 -230 -28 -14 -146 -44 -176 -45
-8 0 -13 100 -18 328 l-7 327 -35 58 c-18 32 -34 60 -34 63 0 8 127 4 176 -5z"/>
<path d="M10340 4765 c-284 -58 -536 -251 -670 -516 -125 -246 -125 -569 -1
-819 139 -277 365 -468 656 -552 114 -33 333 -33 449 0 171 49 304 128 431
256 184 186 278 414 278 681 1 111 -3 145 -26 229 -121 442 -502 738 -947 735
-58 -1 -134 -7 -170 -14z m330 -352 c130 -36 264 -132 336 -240 21 -31 51 -96
68 -143 26 -75 29 -98 29 -200 0 -145 -29 -242 -104 -354 -77 -116 -170 -186
-299 -227 -82 -25 -230 -27 -310 -3 -208 62 -380 240 -434 451 -23 88 -21 244
4 325 91 296 413 474 710 391z"/>
<path d="M10644 4290 c27 -47 60 -147 71 -216 6 -39 4 -44 -28 -68 l-35 -27
-60 61 c-33 33 -69 60 -78 60 -10 0 -48 -30 -85 -66 l-66 -65 -33 27 c-32 27
-32 29 -25 88 9 81 24 143 47 189 26 52 15 46 -27 -15 -39 -58 -85 -190 -85
-243 0 -30 6 -37 45 -60 44 -26 44 -27 27 -50 l-17 -22 -44 36 -44 36 6 100
c4 55 15 130 25 168 11 37 18 67 16 67 -14 0 -85 -171 -98 -233 -28 -133 -27
-135 59 -195 41 -29 78 -52 83 -52 4 0 14 11 22 24 14 23 15 17 15 -77 1 -85
5 -110 23 -149 13 -27 24 -48 26 -48 2 0 1 35 -1 78 -3 66 -2 74 9 56 77 -124
165 -126 235 -6 l28 47 5 -85 c5 -83 6 -84 20 -55 10 21 14 66 15 147 0 107 1
116 15 98 15 -20 17 -19 84 35 38 30 74 55 79 55 14 0 0 123 -20 185 -14 44
-96 185 -107 185 -2 0 5 -19 16 -42 21 -42 58 -202 58 -248 0 -37 -84 -119
-107 -104 -28 17 -24 28 23 63 45 32 46 34 40 76 -14 92 -73 210 -132 266
l-26 24 26 -45z"/>
<path d="M8948 4745 c-2 -2 -109 -6 -238 -10 -129 -4 -253 -8 -275 -10 -22 -2
-61 -4 -87 -4 -27 -1 -48 -6 -48 -12 0 -6 13 -29 29 -52 77 -114 76 -105 79
-391 3 -207 1 -261 -10 -267 -7 -5 -34 -9 -60 -9 -27 0 -48 -3 -48 -6 0 -4 20
-50 44 -103 69 -153 71 -166 70 -521 0 -211 -4 -333 -12 -369 -15 -64 -60
-156 -109 -224 -20 -26 -34 -50 -31 -52 2 -2 49 2 103 10 55 7 147 19 205 24
58 6 123 13 145 16 83 9 264 24 370 30 61 4 120 8 133 10 12 2 137 7 277 11
l254 7 77 72 76 73 -30 7 c-26 5 -520 -2 -642 -10 -57 -3 -294 -17 -336 -19
-30 -1 -32 1 -38 43 -3 24 -6 176 -6 337 l0 294 88 2 c153 4 345 -2 421 -12
41 -6 75 -9 77 -7 2 2 12 59 23 128 22 136 75 377 93 422 6 15 8 30 5 33 -3 3
-33 -13 -67 -36 -131 -89 -143 -92 -404 -98 l-233 -5 -6 99 c-9 135 -9 414 1
415 47 8 264 19 556 28 l269 9 76 76 76 77 -432 -2 c-238 -1 -434 -3 -435 -4z"/>
<path d="M8159 4716 c-2 -2 -71 -6 -154 -10 -82 -4 -170 -9 -195 -11 -25 -2
-81 -7 -125 -10 -43 -3 -80 -7 -81 -8 -1 -1 20 -31 48 -67 95 -124 88 -95 88
-367 l0 -243 -22 -5 c-25 -5 -275 -31 -400 -41 l-80 -7 4 244 c3 242 3 244 30
303 16 32 44 80 64 107 l36 49 -29 0 c-73 0 -669 -66 -685 -76 -4 -3 13 -33
38 -68 76 -109 77 -116 70 -406 -7 -290 -6 -288 -90 -297 l-45 -6 39 -76 c21
-42 44 -98 51 -125 21 -86 -3 -628 -51 -1106 -11 -113 -27 -277 -35 -365 -9
-88 -18 -174 -21 -192 l-6 -31 202 -102 c182 -91 345 -183 680 -380 484 -286
1075 -567 1535 -731 61 -22 125 -47 143 -55 38 -18 51 -12 31 12 -62 76 -634
592 -823 744 -10 8 -23 20 -30 25 -41 36 -198 164 -291 237 -287 225 -567 447
-615 488 -29 25 -91 78 -139 118 -47 41 -89 79 -92 85 -3 7 -3 89 2 182 4 94
11 341 15 550 4 209 10 389 15 401 9 24 23 27 301 46 98 6 181 8 185 4 5 -4 8
-125 8 -269 0 -256 -1 -263 -24 -307 -40 -76 -143 -199 -275 -329 -70 -68
-125 -126 -122 -128 7 -7 215 82 286 122 158 89 319 231 394 344 75 115 80
152 41 313 -51 212 -24 356 101 536 l44 64 -46 61 c-87 117 -114 195 -114 335
0 133 49 270 139 389 22 28 37 54 34 57 -7 7 -27 8 -34 2z"/>
<path d="M13001 4683 c39 -67 44 -69 189 -88 74 -9 198 -28 275 -41 77 -13
147 -24 156 -24 16 0 83 90 74 98 -13 13 -584 92 -664 92 l-53 0 23 -37z"/>
<path d="M6505 4563 c-208 -16 -318 -27 -482 -49 -106 -13 -201 -28 -212 -32
-19 -7 -18 -10 16 -65 25 -41 40 -56 52 -53 9 3 129 28 266 56 259 52 348 75
428 110 79 35 62 44 -68 33z"/>
<path d="M3556 4132 c-3 -5 -10 -40 -16 -78 -6 -38 -25 -136 -41 -218 l-31
-148 34 -29 c52 -45 245 -137 333 -159 130 -32 275 -49 275 -32 0 4 -15 14
-32 21 -108 48 -287 206 -368 326 -62 92 -84 137 -119 240 -16 48 -31 82 -35
77z"/>
<path d="M13660 3959 c-41 -33 -173 -153 -294 -266 -263 -249 -457 -427 -551
-508 -39 -33 -72 -62 -75 -65 -3 -3 -50 -43 -105 -89 -55 -46 -121 -101 -147
-122 -26 -22 -86 -70 -133 -107 l-87 -67 6 -114 c3 -62 7 -115 8 -116 4 -4
149 134 361 341 331 324 876 815 1008 907 13 10 31 53 54 133 20 65 34 122 33
126 -2 5 -37 -19 -78 -53z"/>
<path d="M5653 3477 c-16 -19 -116 -218 -112 -220 10 -6 338 -294 464 -406
161 -144 245 -222 403 -374 62 -60 116 -107 119 -104 3 3 11 55 19 114 7 59
16 122 19 139 5 28 -1 38 -47 85 -53 54 -232 218 -528 484 -85 77 -194 174
-241 217 -65 58 -89 75 -96 65z"/>
<path d="M10440 2401 l-35 -6 0 -168 c0 -155 2 -170 19 -183 23 -16 26 -17 46
-4 14 8 17 27 19 98 1 32 2 32 50 32 88 0 139 70 112 153 -19 57 -52 79 -118
82 -32 1 -74 -1 -93 -4z"/>
<path d="M10042 2382 c-23 -3 -23 -5 -21 -145 2 -187 5 -206 36 -213 13 -4 29
-2 34 3 8 8 17 54 18 101 1 19 6 22 42 22 52 0 103 24 118 56 6 14 11 45 11
69 0 35 -6 52 -29 77 -28 31 -32 32 -107 33 -44 0 -89 -1 -102 -3z"/>
<path d="M9705 2356 c-74 -32 -116 -124 -96 -210 28 -123 138 -178 248 -125
163 79 103 349 -77 348 -25 0 -59 -6 -75 -13z m112 -76 c43 -26 56 -54 50
-107 -7 -62 -38 -93 -93 -93 -37 0 -45 4 -63 34 -41 66 -18 167 42 179 12 2
24 5 27 6 3 0 19 -8 37 -19z"/>
<path d="M9419 2339 c-14 -14 -19 -33 -19 -73 0 -61 -6 -66 -75 -66 l-43 0 -4
66 c-5 81 -33 107 -73 67 -15 -14 -17 -37 -14 -173 4 -158 11 -190 45 -190 29
0 44 31 44 90 l0 58 55 7 c30 3 59 4 65 0 5 -3 10 -28 10 -54 0 -57 17 -84 51
-79 l24 3 3 145 c2 80 0 159 -3 176 -7 40 -38 51 -66 23z"/>
<path d="M8824 2326 c-45 -20 -64 -52 -64 -108 0 -57 17 -72 119 -103 45 -14
67 -26 69 -38 10 -50 -71 -65 -114 -22 -21 21 -28 23 -49 13 -36 -16 -39 -38
-8 -70 70 -74 228 -50 252 39 13 46 4 90 -23 109 -11 8 -52 24 -89 35 -72 21
-90 40 -64 66 22 23 58 23 86 1 30 -23 44 -23 66 2 52 58 -88 116 -181 76z"/>
</g>
</svg>
